# xmcd
#
# Track frame offsets:
#	150
#	10692
#	23088
#	34831
#	49091
#	63444
#	77882
#	92959
#	107028
#	119803
#	135109
#	146456
#	168669
#	181371
#	193051
#	204090
#	217807
#	234721
#	249194
#	269321
#	284963
#	297206
#	316574
#
# Disc length: 4415 seconds
#
# Revision: 0
# Processed by: cddbd v1.5.2PL0 Copyright (c) Steve Scherf et al.
# Submitted via: EasyCDDAExtractor 2010.4.0.0
#
DISCID=4a113d17
DTITLE=Various Artist - The Way it used to be
DYEAR=2010
DGENRE=Vocal
TTITLE0=Louis Armstrong - What a Wanderful World
TTITLE1=Neil Sedeka - Little Devil
TTITLE2=Paul Anka - Put Your Head on My Shoulder
TTITLE3=Dusty Springfield - I Close my Eyes and Count to Ten
TTITLE4=Engelbert Humperdinck - The Way It Used to Be
TTITLE5=Nana Mouskouri - Try to Remember
TTITLE6=Engelbert Humperdinck - Release Me
TTITLE7=Glen Campbell - Wichita Lineman
TTITLE8=Dusty Springfield - You Don't Have to Say You Love Me
TTITLE9=Tom Jones - Delilah
TTITLE10=Judy Garland - Chicago
TTITLE11=Harry Belafonte - Mr Bojangles
TTITLE12=Peggy Lee - I Love Being Here with You
TTITLE13=Glen Campbell and Bobbie Gentry - All I Have to Do Is Dream
TTITLE14=Roy Orbison - Only the Lonely
TTITLE15=John Denver - Annie's Song
TTITLE16=Johnny Cash - A Boy Named Sue
TTITLE17=John Denver - Take Me Home, Country Roads
TTITLE18=Nana Mouskouri - Only Love
TTITLE19=Dionne Warwick - I'll Never Love This Way Again
TTITLE20=Shirley Bassey - Diamonds Are Forever
TTITLE21=Dionne Warwick - Heartbreaker
TTITLE22=Louis Armstrong - We Have All the Time in the World
EXTD=
EXTT0=
EXTT1=
EXTT2=
EXTT3=
EXTT4=
EXTT5=
EXTT6=
EXTT7=
EXTT8=
EXTT9=
EXTT10=
EXTT11=
EXTT12=
EXTT13=
EXTT14=
EXTT15=
EXTT16=
EXTT17=
EXTT18=
EXTT19=
EXTT20=
EXTT21=
EXTT22=
PLAYORDER=
